Motion_pl06
version=1
nRows=10
nColumns=43
inDegrees=yes
endheader
time	pelvis_tilt	pelvis_list	pelvis_rotation	pelvis_tx	pelvis_ty	pelvis_tz	hip_flexion_r	hip_adduction_r	hip_rotation_r	knee_angle_r	ankle_angle_r	subtalar_angle_r	mtp_angle_r	hip_flexion_l	hip_adduction_l	hip_rotation_l	knee_angle_l	ankle_angle_l	subtalar_angle_l	mtp_angle_l	lumbar_extension	lumbar_bending	lumbar_rotation	neck_flexion	neck_lateral_bending	neck_rotation	arm_flex_r	arm_add_r	arm_rot_r	elbow_flex_r	pro_sup_r	wrist_flex_r	wrist_dev_r	hand_finger_flex_r	arm_flex_l	arm_add_l	arm_rot_l	elbow_flex_l	pro_sup_l	wrist_flex_l	wrist_dev_l	hand_finger_flex_l
      1.08500000	     -1.36998474	      8.91828973	     89.89689294	     -0.00771766	      0.43176955	      0.43938680	     93.27057686	     -3.90628151	      5.40631464	   -142.20896614	     22.64246175	      1.28744104	     15.30444389	     91.58949199	     -6.76214634	      2.68856292	   -141.04242719	     21.01533916	     19.83773102	     31.70357106	    -75.74708720	      1.80492714	      2.33551352	     28.46700134	      0.83064730	     -3.17403430	     71.73329294	    -29.76319797	      4.29043280	     94.60582992	     93.48197625	     -4.65889536	    -19.57732428	     -3.53930379	     64.25578798	    -25.71033874	      6.56983245	     80.04328848	    120.17503221	    -41.75124152	    -12.19586022	      1.12627491
      1.08750000	     -1.36304208	      8.75058435	     89.91675641	     -0.00775962	      0.43209990	      0.43922516	     93.32513278	     -3.97074055	      5.34820917	   -142.12723953	     22.67720198	      1.29196690	     15.32074323	     91.67038398	     -6.85976156	      2.65319456	   -140.95905597	     21.03800162	     19.85391626	     31.69685192	    -75.74689977	      1.81653766	      2.31494955	     28.45387631	      0.88229558	     -3.20641540	     71.96796041	    -29.64701061	      4.36955140	     94.55611879	     93.44063685	     -4.62648184	    -19.53143347	     -3.60019104	     64.50883536	    -25.73164679	      6.66211387	     79.89063242	    120.18601858	    -41.67445036	    -12.18118934	      1.15786524
      1.09000000	     -1.35894709	      8.56983093	     89.94523719	     -0.00783693	      0.43232589	      0.43909143	     93.39795041	     -4.03078969	      5.32858157	   -142.06482211	     22.74610458	      1.28202732	     15.34220771	     91.77194380	     -6.92777534	      2.64827510	   -140.88859556	     21.07168747	     19.91123523	     31.69261369	    -75.70298897	      1.82914303	      2.28029089	     28.42175616	      0.95243522	     -3.24761464	     72.19504607	    -29.49831525	      4.46261163	     94.44989942	     93.34522219	     -4.59603146	    -19.45481706	     -3.69880177	     64.78542565	    -25.74582900	      6.78725801	     79.67516416	    120.19979278	    -41.59727383	    -12.16460022	      1.18448472
      1.09250000	     -1.36445371	      8.38162996	     89.98380556	     -0.00793362	      0.43256756	      0.43892680	     93.48898190	     -4.10808166	      5.32605175	   -141.99917517	     22.83052322	      1.26676377	     15.36690569	     91.88422533	     -6.98391085	      2.65409376	   -140.80796130	     21.10271487	     20.02542485	     31.68940225	    -75.63391951	      1.84351713	      2.23079113	     28.37841572	      1.02829138	     -3.29069408	     72.38833176	    -29.36321505	      4.55373951	     94.34695855	     93.18076585	     -4.55984161	    -19.35968987	     -3.84847196	     65.05207426	    -25.77245294	      6.93253068	     79.45293167	    120.21604973	    -41.54767372	    -12.16669424	      1.19759431
      1.09500000	     -1.37961969	      8.18723507	     90.03010128	     -0.00799026	      0.43285428	      0.43876604	     93.57561544	     -4.18552432	      5.30871424	   -141.93403269	     22.89598665	      1.26293741	     15.38735894	     92.00178034	     -7.02899805	      2.64139101	   -140.72547651	     21.11874392	     20.16984504	     31.68842171	    -75.56595684	      1.85635515	      2.17635947	     28.37918074	      1.09988524	     -3.32430859	     72.56590432	    -29.23492372	      4.62571658	     94.27862098	     92.99234570	     -4.52572382	    -19.25985318	     -4.01583373	     65.30877016	    -25.79216768	      7.04702645	     79.23745888	    120.21545369	    -41.52476354	    -12.16969990	      1.19650697
      1.09750000	     -1.37687573	      8.01780786	     90.04899992	     -0.00796154	      0.43304265	      0.43855478	     93.66834170	     -4.22467577	      5.31980549	   -141.89448578	     22.90493576	      1.33887651	     15.53429366	     92.10803869	     -7.11272509	      2.75300854	   -140.67675491	     21.21680695	     20.73390057	     31.61808735	    -75.51710731	      1.81241877	      2.26114342	     28.44511298	      1.21397008	     -3.48086460	     72.65689438	    -29.50271081	      4.73379305	     94.44866347	     91.52039672	     -3.61043639	    -18.77266699	     -6.34372792	     65.73607757	    -25.79834172	      7.56328508	     78.86997116	    119.80484026	    -41.95048693	    -12.44124605	      1.08503552
      1.10000000	     -1.37989885	      7.84532813	     90.09270072	     -0.00803300	      0.43343936	      0.43836701	     93.72385017	     -4.30182401	      5.28794209	   -141.82710715	     22.95540476	      1.32397063	     15.54281610	     92.20352851	     -7.15298926	      2.72477394	   -140.60044343	     21.18687972	     20.78337146	     31.61603019	    -75.47038683	      1.83496268	      2.20002772	     28.50437234	      1.25554284	     -3.48581891	     72.82125290	    -29.31808388	      4.74175586	     94.38942790	     91.53447184	     -3.60074696	    -18.72300110	     -6.41178014	     65.95794685	    -25.77966112	      7.54796069	     78.69601433	    119.78178865	    -41.89175413	    -12.40180562	      1.10100352
      1.10250000	     -1.38858851	      7.65344951	     90.14673633	     -0.00809990	      0.43384905	      0.43823994	     93.80531749	     -4.38310292	      5.28462020	   -141.74886460	     23.00124469	      1.31212078	     15.54983033	     92.32416726	     -7.17804005	      2.71711566	   -140.50700990	     21.14934941	     20.87014087	     31.61769198	    -75.39800672	      1.85448490	      2.13553577	     28.61933887	      1.29947085	     -3.48382121	     73.00968649	    -29.15061159	      4.76835261	     94.30842691	     91.53036696	     -3.57761541	    -18.62446809	     -6.50106969	     66.20675977	    -25.79835536	      7.59740824	     78.52165095	    119.75947628	    -41.81472581	    -12.38095753	      1.12045232
      1.10500000	     -1.40740697	      7.44595567	     90.20783434	     -0.00816199	      0.43425865	      0.43809376	     93.90119983	     -4.46577997	      5.28720046	   -141.67239224	     23.03488745	      1.30912435	     15.55489437	     92.45785408	     -7.18459894	      2.71346049	   -140.39511705	     21.09615322	     21.00644309	     31.62410300	    -75.30744723	      1.87599783	      2.05699233	     28.78661229	      1.34405419	     -3.47493483	     73.18771089	    -29.00078726	      4.80180279	     94.23809123	     91.50815616	     -3.53791385	    -18.47510548	     -6.62360299	     66.45321976	    -25.84155086	      7.68252277	     78.35029404	    119.71387658	    -41.73732357	    -12.36716030	      1.13777997
      1.10750000	     -1.48785527	      7.16338182	     90.35425780	     -0.00833535	      0.43438169	      0.43787612	     94.13520633	     -4.61557224	      5.40367883	   -141.65912661	     23.07172746	      1.30502290	     15.56060779	     92.71605593	     -7.10456796	      2.72856076	   -140.30872601	     20.96182176	     21.49424487	     31.67358447	    -75.14466083	      1.93999545	      1.90042711	     29.08906355	      1.40932042	     -3.43036855	     73.31617761	    -28.91284432	      4.78147915	     94.35755345	     91.41036609	     -3.33443060	    -17.99994689	     -7.11881426	     66.69789777	    -26.04620412	      7.92040118	     78.30327848	    119.45831686	    -41.70838712	    -12.43116703	      1.13242040
